<mxfile host="65bd71144e">
    <diagram id="pz3zlSPxoXigVyOJSuNy" name="Page-1">
        <mxGraphModel dx="2003" dy="2098" grid="1" gridSize="10" guides="1" tooltips="1" connect="1" arrows="1" fold="1" page="0" pageScale="1" pageWidth="850" pageHeight="1100" background="none" math="0" shadow="0">
            <root>
                <mxCell id="0"/>
                <mxCell id="1" parent="0"/>
                <mxCell id="node0" value="&lt;p style=&quot;margin:0px;margin-top:4px;text-align:center;&quot;&gt;&lt;b&gt;Address&lt;/b&gt;&lt;/p&gt;&lt;hr size=&quot;1&quot;&gt;&lt;p style=&quot;margin:0 0 0 4px;line-height:1.6;&quot;&gt;- streetNumber: String&lt;br&gt;- additionalInfo: String&lt;br&gt;- city: String&lt;br&gt;- postalCode: String&lt;br&gt;- user: User&lt;br&gt;- country: String&lt;br&gt;- street: String&lt;br&gt;- departmentNumber: String&lt;/p&gt;" style="verticalAlign=top;align=left;overflow=fill;fontSize=14;fontFamily=coomputer modern;html=1;rounded=0;shadow=0;comic=0;labelBackgroundColor=none;strokeWidth=1;fillStyle=auto;glass=0;fontSource=https%3A%2F%2Ffonts.googleapis.com%2Fcss%3Ffamily%3Dcoomputer%2Bmodern;" parent="1" vertex="1">
                    <mxGeometry x="97" y="-90" width="212" height="231" as="geometry"/>
                </mxCell>
                <mxCell id="node5" value="&lt;p style=&quot;margin:0px;margin-top:4px;text-align:center;&quot;&gt;&lt;b&gt;Authority&lt;/b&gt;&lt;/p&gt;&lt;hr size=&quot;1&quot;&gt;&lt;p style=&quot;margin:0 0 0 4px;line-height:1.6;&quot;&gt;- authority: String&lt;br&gt;- roles: Collection&amp;lt;Role&amp;gt;&lt;/p&gt;" style="verticalAlign=top;align=left;overflow=fill;fontSize=14;fontFamily=coomputer modern;html=1;rounded=0;shadow=0;comic=0;labelBackgroundColor=none;strokeWidth=1;fillStyle=auto;glass=0;fontSource=https%3A%2F%2Ffonts.googleapis.com%2Fcss%3Ffamily%3Dcoomputer%2Bmodern;" parent="1" vertex="1">
                    <mxGeometry x="120" y="-420" width="190" height="94" as="geometry"/>
                </mxCell>
                <mxCell id="node1" value="&lt;p style=&quot;margin:0px;margin-top:4px;text-align:center;&quot;&gt;&lt;b&gt;OAuthAccount&lt;/b&gt;&lt;/p&gt;&lt;hr size=&quot;1&quot;&gt;&lt;p style=&quot;margin:0 0 0 4px;line-height:1.6;&quot;&gt;- provider: String&lt;br&gt;- user: User&lt;br&gt;- oAuthId: String&lt;/p&gt;" style="verticalAlign=top;align=left;overflow=fill;fontSize=14;fontFamily=coomputer modern;html=1;rounded=0;shadow=0;comic=0;labelBackgroundColor=none;strokeWidth=1;fillStyle=auto;glass=0;fontSource=https%3A%2F%2Ffonts.googleapis.com%2Fcss%3Ffamily%3Dcoomputer%2Bmodern;" parent="1" vertex="1">
                    <mxGeometry x="447" y="-64" width="164" height="120" as="geometry"/>
                </mxCell>
                <mxCell id="node4" value="&lt;p style=&quot;margin:0px;margin-top:4px;text-align:center;&quot;&gt;&lt;b&gt;Role&lt;/b&gt;&lt;/p&gt;&lt;hr size=&quot;1&quot;&gt;&lt;p style=&quot;margin:0 0 0 4px;line-height:1.6;&quot;&gt;- users: List&amp;lt;User&amp;gt;&lt;br&gt;- name: String&lt;br&gt;- grantedAuthorities: Collection&amp;lt;Authority&amp;gt;&lt;/p&gt;" style="verticalAlign=top;align=left;overflow=fill;fontSize=14;fontFamily=coomputer modern;html=1;rounded=0;shadow=0;comic=0;labelBackgroundColor=none;strokeWidth=1;fillStyle=auto;glass=0;fontSource=https%3A%2F%2Ffonts.googleapis.com%2Fcss%3Ffamily%3Dcoomputer%2Bmodern;" parent="1" vertex="1">
                    <mxGeometry x="1" y="-240" width="308" height="120" as="geometry"/>
                </mxCell>
                <mxCell id="node3" value="&lt;p style=&quot;margin:0px;margin-top:4px;text-align:center;&quot;&gt;&lt;b&gt;Token&lt;/b&gt;&lt;/p&gt;&lt;hr size=&quot;1&quot;&gt;&lt;p style=&quot;margin:0 0 0 4px;line-height:1.6;&quot;&gt;+ tokenType: TokenType&lt;br&gt;+ user: User&lt;br&gt;+ expired: boolean&lt;br&gt;+ revoked: boolean&lt;br&gt;+ token: String&lt;br&gt;- refreshToken: Token&lt;/p&gt;" style="verticalAlign=top;align=left;overflow=fill;fontSize=14;fontFamily=coomputer modern;html=1;rounded=0;shadow=0;comic=0;labelBackgroundColor=none;strokeWidth=1;fillStyle=auto;glass=0;fontSource=https%3A%2F%2Ffonts.googleapis.com%2Fcss%3Ffamily%3Dcoomputer%2Bmodern;" parent="1" vertex="1">
                    <mxGeometry x="120" y="-753" width="189" height="183" as="geometry"/>
                </mxCell>
                <mxCell id="node2" value="&lt;p style=&quot;margin:0px;margin-top:4px;text-align:center;&quot;&gt;&lt;b&gt;User&lt;/b&gt;&lt;/p&gt;&lt;hr size=&quot;1&quot;&gt;&lt;p style=&quot;margin:0 0 0 4px;line-height:1.6;&quot;&gt;- accountNonExpired: boolean&lt;br&gt;- accountNonLocked: boolean&lt;br&gt;- phone: String&lt;br&gt;- isVerified: boolean&lt;br&gt;- failedLoginAttempts: int&lt;br&gt;- lastname: String&lt;br&gt;- lockTime: Date&lt;br&gt;- tokens: Set&amp;lt;Token&amp;gt;&lt;br&gt;- isOAuthAccount: boolean&lt;br&gt;- credentialsNonExpired: boolean&lt;br&gt;- updatedAt: Date&lt;br&gt;- resetPasswordToken: String&lt;br&gt;- roles: Set&amp;lt;Role&amp;gt;&lt;br&gt;- address: Address&lt;br&gt;- password: String&lt;br&gt;- firstname: String&lt;br&gt;- resetPasswordTokenExpiry: Date&lt;br&gt;- enabled: boolean&lt;br&gt;- lastFailedLoginTime: Date&lt;br&gt;- avatar: String&lt;br&gt;- username: String&lt;br&gt;- oAuthAccounts: Set&amp;lt;OAuthAccount&amp;gt;&lt;br&gt;- createdAt: Date&lt;/p&gt;" style="verticalAlign=top;align=left;overflow=fill;fontSize=14;fontFamily=coomputer modern;html=1;rounded=0;shadow=0;comic=0;labelBackgroundColor=none;strokeWidth=1;fillStyle=auto;glass=0;fontSource=https%3A%2F%2Ffonts.googleapis.com%2Fcss%3Ffamily%3Dcoomputer%2Bmodern;" parent="1" vertex="1">
                    <mxGeometry x="444" y="-753" width="280" height="591" as="geometry"/>
                </mxCell>
                <mxCell id="edge5" value="" style="html=1;rounded=1;edgeStyle=orthogonalEdgeStyle;dashed=0;startArrow=diamondThinstartSize=12;endArrow=openThin;endSize=12;strokeColor=#595959;exitX=1.000;exitY=0.500;exitDx=0;exitDy=0;entryX=0.000;entryY=0.500;entryDx=0;entryDy=0;fontStyle=1;fontSize=14;fontFamily=coomputer modern;fontSource=https%3A%2F%2Ffonts.googleapis.com%2Fcss%3Ffamily%3Dcoomputer%2Bmodern;" parent="1" source="node0" target="node2" edge="1">
                    <mxGeometry width="50" height="50" relative="1" as="geometry">
                        <Array as="points">
                            <mxPoint x="414" y="81"/>
                            <mxPoint x="414" y="-457"/>
                        </Array>
                    </mxGeometry>
                </mxCell>
                <mxCell id="label30" value="1" style="edgeLabel;resizable=0;html=1;align=left;verticalAlign=top;strokeColor=default;fontSize=24;fontFamily=coomputer modern;fontSource=https%3A%2F%2Ffonts.googleapis.com%2Fcss%3Ffamily%3Dcoomputer%2Bmodern;" parent="edge5" vertex="1" connectable="0">
                    <mxGeometry x="409" y="-473" as="geometry"/>
                </mxCell>
                <mxCell id="label34" value="1" style="edgeLabel;resizable=0;html=1;align=left;verticalAlign=top;strokeColor=default;fontSize=15;fontFamily=coomputer modern;fontSource=https%3A%2F%2Ffonts.googleapis.com%2Fcss%3Ffamily%3Dcoomputer%2Bmodern;" parent="edge5" vertex="1" connectable="0">
                    <mxGeometry x="345" y="65" as="geometry"/>
                </mxCell>
                <mxCell id="label35" value="user" style="edgeLabel;resizable=0;html=1;align=left;verticalAlign=top;strokeColor=default;fontStyle=1;fontSize=14;fontFamily=coomputer modern;fontSource=https%3A%2F%2Ffonts.googleapis.com%2Fcss%3Ffamily%3Dcoomputer%2Bmodern;" parent="edge5" vertex="1" connectable="0">
                    <mxGeometry x="400" y="21" as="geometry"/>
                </mxCell>
                <mxCell id="edge3" value="" style="html=1;rounded=1;edgeStyle=orthogonalEdgeStyle;dashed=0;startArrow=diamondThinstartSize=12;endArrow=openThin;endSize=12;strokeColor=#595959;exitX=1.000;exitY=0.500;exitDx=0;exitDy=0;entryX=0.000;entryY=0.500;entryDx=0;entryDy=0;fontStyle=1;fontSize=14;fontFamily=coomputer modern;fontSource=https%3A%2F%2Ffonts.googleapis.com%2Fcss%3Ffamily%3Dcoomputer%2Bmodern;" parent="1" source="node5" target="node4" edge="1">
                    <mxGeometry width="50" height="50" relative="1" as="geometry">
                        <Array as="points">
                            <mxPoint x="46" y="-214"/>
                            <mxPoint x="46" y="-151"/>
                        </Array>
                    </mxGeometry>
                </mxCell>
                <mxCell id="label18" value="1" style="edgeLabel;resizable=0;html=1;align=left;verticalAlign=top;strokeColor=default;fontSize=24;fontFamily=coomputer modern;fontSource=https%3A%2F%2Ffonts.googleapis.com%2Fcss%3Ffamily%3Dcoomputer%2Bmodern;" parent="edge3" vertex="1" connectable="0">
                    <mxGeometry x="25" y="-219" as="geometry"/>
                </mxCell>
                <mxCell id="label22" value="*" style="edgeLabel;resizable=0;html=1;align=left;verticalAlign=top;strokeColor=default;fontFamily=coomputer modern;fontSource=https%3A%2F%2Ffonts.googleapis.com%2Fcss%3Ffamily%3Dcoomputer%2Bmodern;fontSize=15;" parent="edge3" vertex="1" connectable="0">
                    <mxGeometry x="48" y="-157" as="geometry"/>
                </mxCell>
                <mxCell id="label23" value="roles" style="edgeLabel;resizable=0;html=1;align=left;verticalAlign=top;strokeColor=default;fontStyle=1;fontSize=14;fontFamily=coomputer modern;fontSource=https%3A%2F%2Ffonts.googleapis.com%2Fcss%3Ffamily%3Dcoomputer%2Bmodern;" parent="edge3" vertex="1" connectable="0">
                    <mxGeometry x="35" y="-177" as="geometry"/>
                </mxCell>
                <mxCell id="edge6" value="" style="html=1;rounded=1;edgeStyle=orthogonalEdgeStyle;dashed=0;startArrow=diamondThinstartSize=12;endArrow=openThin;endSize=12;strokeColor=#595959;exitX=0.000;exitY=0.500;exitDx=0;exitDy=0;entryX=0.000;entryY=0.500;entryDx=0;entryDy=0;fontStyle=1;fontSize=14;fontFamily=coomputer modern;fontSource=https%3A%2F%2Ffonts.googleapis.com%2Fcss%3Ffamily%3Dcoomputer%2Bmodern;" parent="1" source="node1" target="node2" edge="1">
                    <mxGeometry width="50" height="50" relative="1" as="geometry">
                        <Array as="points">
                            <mxPoint x="414" y="-8"/>
                            <mxPoint x="414" y="-457"/>
                        </Array>
                    </mxGeometry>
                </mxCell>
                <mxCell id="label36" value="1" style="edgeLabel;resizable=0;html=1;align=left;verticalAlign=top;strokeColor=default;fontSize=24;fontFamily=coomputer modern;fontSource=https%3A%2F%2Ffonts.googleapis.com%2Fcss%3Ffamily%3Dcoomputer%2Bmodern;" parent="edge6" vertex="1" connectable="0">
                    <mxGeometry x="414" y="-377" as="geometry"/>
                </mxCell>
                <mxCell id="label40" value="&lt;font style=&quot;font-size: 15px;&quot;&gt;1&lt;/font&gt;" style="edgeLabel;resizable=0;html=1;align=left;verticalAlign=top;strokeColor=default;fontSize=24;fontFamily=coomputer modern;fontSource=https%3A%2F%2Ffonts.googleapis.com%2Fcss%3Ffamily%3Dcoomputer%2Bmodern;" parent="edge6" vertex="1" connectable="0">
                    <mxGeometry x="431" y="-13" as="geometry"/>
                </mxCell>
                <mxCell id="label41" value="user" style="edgeLabel;resizable=0;html=1;align=left;verticalAlign=top;strokeColor=default;fontStyle=1;fontSize=14;fontFamily=coomputer modern;fontSource=https%3A%2F%2Ffonts.googleapis.com%2Fcss%3Ffamily%3Dcoomputer%2Bmodern;" parent="edge6" vertex="1" connectable="0">
                    <mxGeometry x="400" y="-429" as="geometry"/>
                </mxCell>
                <mxCell id="edge0" value="" style="html=1;rounded=1;edgeStyle=orthogonalEdgeStyle;dashed=0;startArrow=diamondThinstartSize=12;endArrow=openThin;endSize=12;strokeColor=#595959;exitX=0.000;exitY=0.635;exitDx=0;exitDy=0;entryX=0.500;entryY=1.000;entryDx=0;entryDy=0;fontStyle=1;fontSize=14;fontFamily=coomputer modern;fontSource=https%3A%2F%2Ffonts.googleapis.com%2Fcss%3Ffamily%3Dcoomputer%2Bmodern;" parent="1" source="node4" target="node5" edge="1">
                    <mxGeometry width="50" height="50" relative="1" as="geometry">
                        <Array as="points">
                            <mxPoint x="-79" y="-136"/>
                        </Array>
                    </mxGeometry>
                </mxCell>
                <mxCell id="label0" value="1" style="edgeLabel;resizable=0;html=1;align=left;verticalAlign=top;strokeColor=default;fontSize=24;fontFamily=coomputer modern;fontSource=https%3A%2F%2Ffonts.googleapis.com%2Fcss%3Ffamily%3Dcoomputer%2Bmodern;" parent="edge0" vertex="1" connectable="0">
                    <mxGeometry x="60" y="-141" as="geometry"/>
                </mxCell>
                <mxCell id="label4" value="*" style="edgeLabel;resizable=0;html=1;align=left;verticalAlign=top;strokeColor=default;fontFamily=coomputer modern;fontSource=https%3A%2F%2Ffonts.googleapis.com%2Fcss%3Ffamily%3Dcoomputer%2Bmodern;" parent="edge0" vertex="1" connectable="0">
                    <mxGeometry x="-79" y="-164" as="geometry"/>
                </mxCell>
                <mxCell id="label5" value="grantedAuthorities" style="edgeLabel;resizable=0;html=1;align=left;verticalAlign=top;strokeColor=default;fontFamily=coomputer modern;fontSource=https%3A%2F%2Ffonts.googleapis.com%2Fcss%3Ffamily%3Dcoomputer%2Bmodern;" parent="edge0" vertex="1" connectable="0">
                    <mxGeometry x="-131" y="-136" as="geometry"/>
                </mxCell>
                <mxCell id="edge8" value="" style="html=1;rounded=1;edgeStyle=orthogonalEdgeStyle;dashed=0;startArrow=diamondThinstartSize=12;endArrow=openThin;endSize=12;strokeColor=#595959;exitX=1.000;exitY=0.500;exitDx=0;exitDy=0;entryX=0.000;entryY=0.500;entryDx=0;entryDy=0;fontFamily=coomputer modern;fontSource=https%3A%2F%2Ffonts.googleapis.com%2Fcss%3Ffamily%3Dcoomputer%2Bmodern;" parent="1" source="node4" target="node2" edge="1">
                    <mxGeometry width="50" height="50" relative="1" as="geometry">
                        <Array as="points">
                            <mxPoint x="414" y="-151"/>
                            <mxPoint x="414" y="-457"/>
                        </Array>
                    </mxGeometry>
                </mxCell>
                <mxCell id="label48" value="1" style="edgeLabel;resizable=0;html=1;align=left;verticalAlign=top;strokeColor=default;fontSize=24;fontFamily=coomputer modern;fontSource=https%3A%2F%2Ffonts.googleapis.com%2Fcss%3Ffamily%3Dcoomputer%2Bmodern;" parent="edge8" vertex="1" connectable="0">
                    <mxGeometry x="399" y="-263" as="geometry"/>
                </mxCell>
                <mxCell id="label52" value="*" style="edgeLabel;resizable=0;html=1;align=left;verticalAlign=top;strokeColor=default;fontFamily=coomputer modern;fontSource=https%3A%2F%2Ffonts.googleapis.com%2Fcss%3Ffamily%3Dcoomputer%2Bmodern;" parent="edge8" vertex="1" connectable="0">
                    <mxGeometry x="423" y="-457" as="geometry"/>
                </mxCell>
                <mxCell id="label53" value="users" style="edgeLabel;resizable=0;html=1;align=left;verticalAlign=top;strokeColor=default;fontStyle=1;fontSize=14;fontFamily=coomputer modern;fontSource=https%3A%2F%2Ffonts.googleapis.com%2Fcss%3Ffamily%3Dcoomputer%2Bmodern;" parent="edge8" vertex="1" connectable="0">
                    <mxGeometry x="406" y="-314" as="geometry"/>
                </mxCell>
                <mxCell id="edge1" value="" style="html=1;rounded=1;edgeStyle=orthogonalEdgeStyle;dashed=0;startArrow=diamondThinstartSize=12;endArrow=openThin;endSize=12;strokeColor=#595959;exitX=1.000;exitY=0.500;exitDx=0;exitDy=0;entryX=0.000;entryY=0.500;entryDx=0;entryDy=0;fontStyle=1;fontSize=14;fontFamily=coomputer modern;fontSource=https%3A%2F%2Ffonts.googleapis.com%2Fcss%3Ffamily%3Dcoomputer%2Bmodern;" parent="1" source="node3" target="node2" edge="1">
                    <mxGeometry width="50" height="50" relative="1" as="geometry">
                        <Array as="points">
                            <mxPoint x="414" y="-361"/>
                            <mxPoint x="414" y="-457"/>
                        </Array>
                    </mxGeometry>
                </mxCell>
                <mxCell id="label6" value="1" style="edgeLabel;resizable=0;html=1;align=left;verticalAlign=top;strokeColor=default;fontSize=24;fontFamily=coomputer modern;fontSource=https%3A%2F%2Ffonts.googleapis.com%2Fcss%3Ffamily%3Dcoomputer%2Bmodern;" parent="edge1" vertex="1" connectable="0">
                    <mxGeometry x="428" y="-417" as="geometry"/>
                </mxCell>
                <mxCell id="label10" value="1" style="edgeLabel;resizable=0;html=1;align=left;verticalAlign=top;strokeColor=default;fontFamily=coomputer modern;fontSource=https%3A%2F%2Ffonts.googleapis.com%2Fcss%3Ffamily%3Dcoomputer%2Bmodern;" parent="edge1" vertex="1" connectable="0">
                    <mxGeometry x="443" y="-462" as="geometry"/>
                </mxCell>
                <mxCell id="label11" value="user" style="edgeLabel;resizable=0;html=1;align=left;verticalAlign=top;strokeColor=default;fontStyle=1;fontSize=14;fontFamily=coomputer modern;fontSource=https%3A%2F%2Ffonts.googleapis.com%2Fcss%3Ffamily%3Dcoomputer%2Bmodern;" parent="edge1" vertex="1" connectable="0">
                    <mxGeometry x="415" y="-482" as="geometry"/>
                </mxCell>
                <mxCell id="edge7" value="" style="html=1;rounded=1;edgeStyle=orthogonalEdgeStyle;dashed=0;startArrow=diamondThinstartSize=12;endArrow=openThin;endSize=12;strokeColor=#595959;exitX=0.660;exitY=1.000;exitDx=0;exitDy=0;entryX=1.000;entryY=0.565;entryDx=0;entryDy=0;fontStyle=1;fontSize=14;fontFamily=coomputer modern;fontSource=https%3A%2F%2Ffonts.googleapis.com%2Fcss%3Ffamily%3Dcoomputer%2Bmodern;" parent="1" source="node2" target="node0" edge="1">
                    <mxGeometry width="50" height="50" relative="1" as="geometry">
                        <Array as="points">
                            <mxPoint x="629" y="96"/>
                        </Array>
                    </mxGeometry>
                </mxCell>
                <mxCell id="label42" value="&lt;font style=&quot;font-size: 15px;&quot;&gt;1&lt;/font&gt;" style="edgeLabel;resizable=0;html=1;align=left;verticalAlign=top;strokeColor=default;fontFamily=coomputer modern;fontSource=https%3A%2F%2Ffonts.googleapis.com%2Fcss%3Ffamily%3Dcoomputer%2Bmodern;fontSize=15;" parent="edge7" vertex="1" connectable="0">
                    <mxGeometry x="307" y="80" as="geometry"/>
                </mxCell>
                <mxCell id="label46" value="1" style="edgeLabel;resizable=0;html=1;align=left;verticalAlign=top;strokeColor=default;fontSize=24;fontFamily=coomputer modern;fontSource=https%3A%2F%2Ffonts.googleapis.com%2Fcss%3Ffamily%3Dcoomputer%2Bmodern;" parent="edge7" vertex="1" connectable="0">
                    <mxGeometry x="623" y="15" as="geometry"/>
                </mxCell>
                <mxCell id="label47" value="address" style="edgeLabel;resizable=0;html=1;align=left;verticalAlign=top;strokeColor=default;fontStyle=1;fontSize=14;fontFamily=coomputer modern;fontSource=https%3A%2F%2Ffonts.googleapis.com%2Fcss%3Ffamily%3Dcoomputer%2Bmodern;" parent="edge7" vertex="1" connectable="0">
                    <mxGeometry x="307" y="111" as="geometry"/>
                </mxCell>
                <mxCell id="edge4" value="" style="html=1;rounded=1;edgeStyle=orthogonalEdgeStyle;dashed=0;startArrow=diamondThinstartSize=12;endArrow=openThin;endSize=12;strokeColor=#595959;exitX=0.305;exitY=1.000;exitDx=0;exitDy=0;entryX=0.500;entryY=0.000;entryDx=0;entryDy=0;fontStyle=1;fontSize=14;fontFamily=coomputer modern;fontSource=https%3A%2F%2Ffonts.googleapis.com%2Fcss%3Ffamily%3Dcoomputer%2Bmodern;" parent="1" source="node2" target="node1" edge="1">
                    <mxGeometry width="50" height="50" relative="1" as="geometry">
                        <Array as="points"/>
                    </mxGeometry>
                </mxCell>
                <mxCell id="label24" value="&lt;font style=&quot;font-size: 15px;&quot;&gt;1&lt;/font&gt;" style="edgeLabel;resizable=0;html=1;align=left;verticalAlign=top;strokeColor=default;fontSize=24;fontFamily=coomputer modern;fontSource=https%3A%2F%2Ffonts.googleapis.com%2Fcss%3Ffamily%3Dcoomputer%2Bmodern;" parent="edge4" vertex="1" connectable="0">
                    <mxGeometry x="518" y="-157" as="geometry"/>
                </mxCell>
                <mxCell id="label28" value="*" style="edgeLabel;resizable=0;html=1;align=left;verticalAlign=top;strokeColor=default;fontSize=15;fontFamily=coomputer modern;fontSource=https%3A%2F%2Ffonts.googleapis.com%2Fcss%3Ffamily%3Dcoomputer%2Bmodern;" parent="edge4" vertex="1" connectable="0">
                    <mxGeometry x="529" y="-129" as="geometry"/>
                </mxCell>
                <mxCell id="label29" value="oAuthAccounts" style="edgeLabel;resizable=0;html=1;align=left;verticalAlign=top;strokeColor=default;fontFamily=coomputer modern;fontSource=https%3A%2F%2Ffonts.googleapis.com%2Fcss%3Ffamily%3Dcoomputer%2Bmodern;" parent="edge4" vertex="1" connectable="0">
                    <mxGeometry x="487" y="-79" as="geometry"/>
                </mxCell>
                <mxCell id="edge9" value="" style="html=1;rounded=1;edgeStyle=orthogonalEdgeStyle;dashed=0;startArrow=diamondThinstartSize=12;endArrow=openThin;endSize=12;strokeColor=#595959;exitX=0.000;exitY=0.475;exitDx=0;exitDy=0;entryX=0.000;entryY=0.500;entryDx=0;entryDy=0;fontStyle=1;fontSize=14;fontFamily=coomputer modern;fontSource=https%3A%2F%2Ffonts.googleapis.com%2Fcss%3Ffamily%3Dcoomputer%2Bmodern;" parent="1" source="node2" target="node4" edge="1">
                    <mxGeometry width="50" height="50" relative="1" as="geometry">
                        <Array as="points">
                            <mxPoint x="46" y="-472"/>
                            <mxPoint x="46" y="-151"/>
                        </Array>
                    </mxGeometry>
                </mxCell>
                <mxCell id="label54" value="1" style="edgeLabel;resizable=0;html=1;align=left;verticalAlign=top;strokeColor=default;fontStyle=1;fontSize=15;fontFamily=coomputer modern;fontSource=https%3A%2F%2Ffonts.googleapis.com%2Fcss%3Ffamily%3Dcoomputer%2Bmodern;" parent="edge9" vertex="1" connectable="0">
                    <mxGeometry x="50" y="-375" as="geometry"/>
                </mxCell>
                <mxCell id="label58" value="*" style="edgeLabel;resizable=0;html=1;align=left;verticalAlign=top;strokeColor=default;fontFamily=coomputer modern;fontSource=https%3A%2F%2Ffonts.googleapis.com%2Fcss%3Ffamily%3Dcoomputer%2Bmodern;fontSize=15;" parent="edge9" vertex="1" connectable="0">
                    <mxGeometry x="42" y="-179" as="geometry"/>
                </mxCell>
                <mxCell id="label59" value="roles" style="edgeLabel;resizable=0;html=1;align=left;verticalAlign=top;strokeColor=default;fontStyle=1;fontSize=14;fontFamily=coomputer modern;fontSource=https%3A%2F%2Ffonts.googleapis.com%2Fcss%3Ffamily%3Dcoomputer%2Bmodern;" parent="edge9" vertex="1" connectable="0">
                    <mxGeometry x="20" y="-322" as="geometry"/>
                </mxCell>
                <mxCell id="edge2" value="" style="html=1;rounded=1;edgeStyle=orthogonalEdgeStyle;dashed=0;startArrow=diamondThinstartSize=12;endArrow=openThin;endSize=12;strokeColor=#595959;exitX=0.000;exitY=0.687;exitDx=0;exitDy=0;entryX=1.000;entryY=0.582;entryDx=0;entryDy=0;fontStyle=1;fontSize=14;fontFamily=coomputer modern;fontSource=https%3A%2F%2Ffonts.googleapis.com%2Fcss%3Ffamily%3Dcoomputer%2Bmodern;" parent="1" source="node2" target="node3" edge="1">
                    <mxGeometry width="50" height="50" relative="1" as="geometry">
                        <Array as="points"/>
                    </mxGeometry>
                </mxCell>
                <mxCell id="label12" value="1" style="edgeLabel;resizable=0;html=1;align=left;verticalAlign=top;strokeColor=default;fontFamily=coomputer modern;fontSource=https%3A%2F%2Ffonts.googleapis.com%2Fcss%3Ffamily%3Dcoomputer%2Bmodern;" parent="edge2" vertex="1" connectable="0">
                    <mxGeometry x="331" y="-336" as="geometry"/>
                </mxCell>
                <mxCell id="label16" value="*" style="edgeLabel;resizable=0;html=1;align=left;verticalAlign=top;strokeColor=default;fontFamily=coomputer modern;fontSource=https%3A%2F%2Ffonts.googleapis.com%2Fcss%3Ffamily%3Dcoomputer%2Bmodern;" parent="edge2" vertex="1" connectable="0">
                    <mxGeometry x="370" y="-352" as="geometry"/>
                </mxCell>
                <mxCell id="label17" value="tokens" style="edgeLabel;resizable=0;html=1;align=left;verticalAlign=top;strokeColor=default;fontStyle=1;fontSize=14;fontFamily=coomputer modern;fontSource=https%3A%2F%2Ffonts.googleapis.com%2Fcss%3Ffamily%3Dcoomputer%2Bmodern;" parent="edge2" vertex="1" connectable="0">
                    <mxGeometry x="370" y="-377" as="geometry"/>
                </mxCell>
            </root>
        </mxGraphModel>
    </diagram>
</mxfile>